<svg xmlns="http://www.w3.org/2000/svg" viewBox="1 -3 1186 288" preserveAspectRatio="xMidYMid meet" role="img" aria-label="Unison"><defs><linearGradient id="g" x1="0" y1="0" x2="0" y2="1"><stop offset="0" stop-color="#76baeb"/><stop offset=".5" stop-color="#73a5d3"/><stop offset="1" stop-color="#e18e95"/></linearGradient></defs><path fill="url(#g)" fill-rule="evenodd" d="M558.5,3 567,2.5 568,3.5 572,3.5 580,7.5 589.5,17 593.5,27 593.5,39 589.5,49 579,59.5 568,63.5 558,63.5 551,61.5 546,58.5 537.5,50 534.5,44 532.5,36 533.5,25 538.5,15 546,7.5 554,3.5ZM6.5,9 142,8.5 143.5,10 143,16.5 129,16.5 128,17.5 121,17.5 115,19.5 109.5,24 105.5,33 105.5,40 104.5,41 104.5,205 105.5,206 105.5,216 106.5,217 107.5,227 112.5,238 120,246.5 127,251.5 135,255.5 146,258.5 170,258.5 171,257.5 175,257.5 185,254.5 199,246.5 209.5,236 213.5,230 218.5,220 222.5,203 223.5,183 224.5,182 224.5,50 223.5,49 223.5,40 219.5,29 214,22.5 201,17.5 187,16.5 186.5,9 278.5,9 278,16.5 268,16.5 255,20.5 247.5,27 242.5,37 242.5,42 241.5,43 241.5,167 240.5,168 240.5,191 239.5,192 238.5,210 237.5,211 237.5,216 235.5,224 229.5,237 219.5,250 209,259.5 199,266.5 191,270.5 173,276.5 163,277.5 162,278.5 153,278.5 152,279.5 127,279.5 126,278.5 116,278.5 115,277.5 105,276.5 89,271.5 68,258.5 56.5,247 50.5,238 45.5,226 42.5,214 41.5,198 40.5,197 40.5,41 39.5,40 39.5,33 37.5,27 31,20.5 23,17.5 7,16.5ZM417.5,86 436,85.5 444,87.5 452,91.5 464.5,103 470.5,113 473.5,123 474.5,139 475.5,140 475.5,246 476.5,247 476.5,253 481,261.5 487,264.5 495,265.5 495.5,272 494,273.5 402.5,273 402.5,266 411,263.5 418.5,256 419.5,246 420.5,245 420.5,135 419.5,134 419.5,126 416.5,119 412,114.5 408,112.5 399,112.5 393,114.5 387,118.5 379.5,126 373.5,135 373.5,156 372.5,157 373.5,249 376.5,259 380,262.5 390.5,266 390.5,273 299,273.5 298.5,266 306,264.5 312,261.5 314.5,259 317.5,251 318.5,151 317.5,150 317.5,115 316.5,114 316.5,110 314.5,105 312,102.5 298.5,98 298.5,91 372,90.5 373.5,92 374,112.5 383,103.5 395,94.5 407,88.5ZM677.5,86 697,85.5 698,86.5 702,86.5 714,90.5 724,95.5 731,94.5 738,85.5 744,85.5 745.5,87 746.5,126 747.5,127 747,148.5 740.5,148 735.5,136 725.5,120 714,108.5 703,102.5 695,100.5 687,100.5 680,103.5 674.5,109 672.5,113 672.5,122 676.5,129 681,133.5 699,147.5 728,167.5 745.5,184 750.5,191 756.5,206 756.5,211 757.5,212 756.5,231 753.5,241 745.5,256 734,267.5 719,275.5 706,278.5 690,278.5 677,275.5 658,268.5 652,268.5 647.5,272 643,278.5 639,278.5 637.5,277 637.5,269 636.5,268 636.5,248 635.5,247 635.5,227 634.5,226 635,212.5 641,212.5 642.5,214 644.5,221 650.5,233 657.5,243 666,251.5 682,261.5 690,263.5 702,262.5 709,258.5 714.5,250 714.5,246 715.5,245 714.5,237 709.5,228 699,218.5 677,203.5 655,186.5 644.5,176 639.5,169 635.5,161 632.5,151 632.5,146 631.5,145 632.5,129 636.5,117 642.5,107 656,93.5 666,88.5ZM859.5,86 882,85.5 883,86.5 888,86.5 896,88.5 916,97.5 928,106.5 940.5,121 948.5,136 952.5,147 955.5,160 955.5,166 956.5,167 956.5,181 957.5,182 956.5,183 956.5,199 955.5,200 954.5,210 948.5,229 938.5,246 924,261.5 914,268.5 901,274.5 889,277.5 883,277.5 882,278.5 861,278.5 860,277.5 849,276.5 829,268.5 818,260.5 804.5,245 793.5,225 789.5,213 788.5,205 787.5,204 787.5,198 786.5,197 786.5,169 787.5,168 787.5,162 793.5,140 800.5,126 809.5,113 825,98.5 840,90.5 853,86.5ZM1103.5,86 1122,85.5 1130,87.5 1138,91.5 1150.5,103 1156.5,113 1159.5,123 1160.5,139 1161.5,140 1161.5,246 1162.5,247 1162.5,253 1167,261.5 1173,264.5 1181,265.5 1181.5,272 1180,273.5 1088.5,273 1088.5,266 1097,263.5 1104.5,256 1105.5,246 1106.5,245 1106.5,135 1105.5,134 1105.5,126 1102.5,119 1098,114.5 1094,112.5 1085,112.5 1079,114.5 1073,118.5 1065.5,126 1059.5,135 1059.5,156 1058.5,157 1059.5,249 1062.5,259 1066,262.5 1076.5,266 1076.5,273 985,273.5 984.5,266 992,264.5 998,261.5 1000.5,259 1003.5,251 1004.5,151 1003.5,150 1003.5,115 1002.5,114 1002.5,110 1000.5,105 998,102.5 984.5,98 984.5,91 1058,90.5 1059.5,92 1060,112.5 1069,103.5 1081,94.5 1093,88.5ZM513.5,91 590.5,91 590.5,245 593.5,258 600,263.5 607,265.5 612,265.5 612,273.5 515,273.5 513.5,272 514,265.5 523,264.5 529,261.5 532.5,258 535.5,247 535.5,118 532.5,106 529,102.5 525,100.5 514,98.5ZM868.5,100 875,99.5 882,101.5 891.5,111 896.5,123 897.5,134 898.5,135 898.5,148 899.5,149 899.5,201 898.5,202 898.5,220 897.5,221 897.5,231 896.5,232 895.5,243 889.5,256 882,262.5 876,264.5 864,263.5 857,259.5 851.5,253 846.5,240 845.5,227 844.5,226 844.5,213 843.5,212 843.5,165 844.5,164 844.5,147 845.5,146 845.5,136 846.5,135 847.5,124 852.5,110 859,103.5Z"/></svg>
